<svg xmlns="http://www.w3.org/2000/svg" width="40" height="40" viewBox="0 0 28 28"><defs><style>.a{fill:#fff;stroke:#e7404a;}.b{fill:#e7404a;}.c{stroke:none;}.d{fill:none;}</style></defs><g transform="translate(-797 -479)"><g class="a" transform="translate(797 479)"><circle class="c" cx="14" cy="14" r="14"/><circle class="d" cx="14" cy="14" r="13.5"/></g><path class="b" d="M25.686,41.954h3.521a.341.341,0,1,0,0-.683H26.27l-1.223-7.8a.341.341,0,1,0-.675.106Z" transform="translate(783.606 458.635)"/><path class="b" d="M17.453,12.115h.427L19.373,23a.342.342,0,0,0,.338.295h5.835a.341.341,0,0,0,.339-.3l1.308-10.879h.422a.341.341,0,0,0,.341-.341,5.429,5.429,0,0,0-3.9-5.2l.788-3.385,1.913.524a.341.341,0,1,0,.181-.659l-2.255-.618a.341.341,0,0,0-.423.252l-.87,3.738a5.386,5.386,0,0,0-6.279,5.348A.341.341,0,0,0,17.453,12.115Zm7.791,10.5H20.009l-1.439-10.5h7.936ZM22.535,7.034a4.746,4.746,0,0,1,4.728,4.4H17.806A4.746,4.746,0,0,1,22.535,7.034Z" transform="translate(788.385 478.897)"/><path class="b" d="M34.321,20.625a3.255,3.255,0,0,0-4.057-2.157.341.341,0,0,0,.226.644c.088-.031,2.156-.725,3.2,1.776a.341.341,0,0,0,.63-.263Z" transform="translate(779.873 468.418)"/></g></svg>