<svg xmlns="http://www.w3.org/2000/svg" width="40" height="40" viewBox="0 0 28 28"><defs><style>.a{fill:#e7404a;}.b{fill:#fff;stroke:#e7404a;}.c{stroke:none;}.d{fill:none;}</style></defs><g transform="translate(-814 -435)"><rect class="a" width="0.592" height="0.592" transform="translate(822.16 448.348)"/><g transform="translate(814 435)"><g class="b"><circle class="c" cx="14" cy="14" r="14"/><circle class="d" cx="14" cy="14" r="13.5"/></g><path class="a" d="M40,32.3v1.185a.3.3,0,0,0,.3.3h8.885a.3.3,0,0,0,.3-.3v-.3H55.7a.3.3,0,0,0,.3-.3V31.712a.3.3,0,0,0-.3-.3v-7.7a.3.3,0,0,0,.3-.3V22.234a.3.3,0,0,0-.3-.3h-.1a4.146,4.146,0,1,0-7.493,0H48a.3.3,0,0,0-.3.3v1.185a.3.3,0,0,0,.3.3v3.554H46.935l-.485-.485A7.446,7.446,0,0,0,41.185,24.6a.3.3,0,0,0-.3.3v.52a3.306,3.306,0,0,0,.559,1.849H40.3a.3.3,0,0,0-.3.3V28.75a.3.3,0,0,0,.3.3v2.962A.3.3,0,0,0,40,32.3Zm8.885.889H40.592V32.6h8.293Zm-6.516-2.666a2.365,2.365,0,0,1,.52-1.481h3.7a2.368,2.368,0,0,1,0,2.962h-3.7A2.365,2.365,0,0,1,42.369,30.527Zm6.22,1.481H47.3a2.958,2.958,0,0,0,0-2.962h1.286ZM55.4,32.6H49.478v-.3a.3.3,0,0,0-.3-.3H55.4Zm-7.108-9.478V22.53H55.4v.592Zm1.481-2.962a2.073,2.073,0,1,1,3.142,1.777H50.779a2.079,2.079,0,0,1-1.005-1.777Zm-1.481,0a3.554,3.554,0,1,1,6.632,1.777H53.834a2.666,2.666,0,1,0-3.972,0H48.769a3.543,3.543,0,0,1-.476-1.777Zm.3,3.554H55.1v7.7H49.181V29.046a.3.3,0,0,0,.3-.3V27.565a.3.3,0,0,0-.3-.3h-.592ZM46.1,27.269H42.2l-.01-.01a2.645,2.645,0,0,0,2.075-1.332A6.817,6.817,0,0,1,46.031,27.2ZM41.481,25.2a6.811,6.811,0,0,1,2.241.481,2.055,2.055,0,0,1-1.762.994h-.174a2.724,2.724,0,0,1-.3-1.257Zm-.889,2.659h8.293v.592H40.592Zm.3,1.185h1.286a2.958,2.958,0,0,0,0,2.962H40.889Z" transform="translate(-34.209 -12.144)"/><path class="a" d="M336.889,104a.889.889,0,1,0,.889.889A.889.889,0,0,0,336.889,104Zm0,1.185a.3.3,0,1,1,.3-.3A.3.3,0,0,1,336.889,105.185Z" transform="translate(-319.251 -96.871)"/></g><path class="a" d="M298.369,268.739A2.369,2.369,0,1,0,296,266.369,2.369,2.369,0,0,0,298.369,268.739Zm0-4.146a1.777,1.777,0,1,1-1.777,1.777A1.777,1.777,0,0,1,298.369,264.592Z" transform="translate(533.268 184.052)"/></g></svg>