<svg xmlns="http://www.w3.org/2000/svg" width="40" height="40" viewBox="0 0 28 28"><defs><style>.a{fill:#fff;stroke:#e7404a;}.b{fill:#e7404a;}.c{stroke:none;}.d{fill:none;}</style></defs><g transform="translate(-833 -479)"><g class="a" transform="translate(833 479)"><circle class="c" cx="14" cy="14" r="14"/><circle class="d" cx="14" cy="14" r="13.5"/></g><path class="b" d="M49.2,60.657a.157.157,0,1,0,.315,0v-.9a.157.157,0,1,0-.315,0Z" transform="translate(798.886 434.308)"/><path class="b" d="M25.323,67.161h0a.638.638,0,0,0-.427-.719c-.022,0-.045-.022-.067-.022a.515.515,0,0,0-.4.045.56.56,0,0,0-.247.337.626.626,0,0,0,.427.7c.022,0,.045.022.067.022a.285.285,0,0,0,.135.022A.533.533,0,0,0,25.323,67.161Zm-.225-.045a.289.289,0,0,1-.36.2c-.022,0-.022,0-.067-.022a.415.415,0,0,1-.292-.45.35.35,0,0,1,.135-.18.32.32,0,0,1,.135-.045.17.17,0,0,1,.09.022c.022,0,.022,0,.067.022A.382.382,0,0,1,25.1,67.116Z" transform="translate(818.289 429.04)"/><path class="b" d="M29.388,73.667a.32.32,0,0,0-.135-.045.492.492,0,0,0-.427.067.469.469,0,0,0-.247.36.7.7,0,0,0,.472.764c.045.022.067.022.112.045a.285.285,0,0,0,.135.022.574.574,0,0,0,.54-.427v-.022A.662.662,0,0,0,29.388,73.667Zm.247.719a.335.335,0,0,1-.4.247c-.022,0-.045-.022-.09-.022a.466.466,0,0,1-.337-.517.286.286,0,0,1,.157-.2.423.423,0,0,1,.18-.045h.09c.022,0,.045.022.09.045A.414.414,0,0,1,29.635,74.387Z" transform="translate(814.876 423.455)"/><path class="b" d="M31.9,67.238a.083.083,0,0,0-.067-.022.441.441,0,0,0-.337.022.4.4,0,0,0-.225.27.533.533,0,0,0,.337.607.083.083,0,0,0,.067.022.285.285,0,0,0,.135.022.424.424,0,0,0,.18-.045.409.409,0,0,0,.225-.247v-.022A.5.5,0,0,0,31.9,67.238Zm.022.674a.192.192,0,0,1-.157,0c-.022,0-.022,0-.045-.022a.353.353,0,0,1-.225-.36.271.271,0,0,1,.112-.112.135.135,0,0,1,.09-.022.083.083,0,0,1,.067.022c.022,0,.022,0,.045.022a.347.347,0,0,1,.2.36A.149.149,0,0,1,31.922,67.912Z" transform="translate(812.791 428.424)"/><path class="b" d="M26.816,21.812q0-1.248-.067-2.833c0-.18-.022-.382-.022-.585a6.934,6.934,0,0,0-.337-2.338,4.329,4.329,0,0,0-.832-1.214,3.765,3.765,0,0,1-.832-1.3A4.366,4.366,0,0,1,24.68,13a.534.534,0,0,0,.45-.54v-.7a.557.557,0,0,0-.562-.562H21.15a.557.557,0,0,0-.562.562v.7a.555.555,0,0,0,.45.54,4.366,4.366,0,0,1-.045.54,3.891,3.891,0,0,1-.832,1.3,4.579,4.579,0,0,0-.809,1.214,6.983,6.983,0,0,0-.337,2.361,4.332,4.332,0,0,1-.022.54c-.045.877-.067,1.8-.09,2.833-.022,1.079-.022,2.046-.022,2.945-.022.045-.045.112-.067.157-.2-.135-.4-.27-.607-.427a.169.169,0,0,0-.2,0,.352.352,0,0,1-.36.045.022.022,0,0,1-.022-.022.415.415,0,0,1-.292-.45.2.2,0,0,0-.09-.18l-.247-.135c-1.1-.585-1.326-.719-1.8-1.012a.574.574,0,0,0-.652.09l-2.7,2.451h0c-.022,0-.022,0-.045.022-.045.022-.067.045-.112.067a3.1,3.1,0,0,0-.36,2.81,1.077,1.077,0,0,0,.989.877h0l6.34-.022h.022a1.63,1.63,0,0,0,1.529.9,1.608,1.608,0,0,0,1.439-.742,2.2,2.2,0,0,0,.742.157,1.865,1.865,0,0,0,.922-.225h1.574a1.862,1.862,0,0,0,1.866-1.8C26.816,25.678,26.838,23.925,26.816,21.812ZM21.173,11.537H21.4v1.147h-.225Zm.45,0h.225v1.147h-.225Zm.45,0H22.3v1.147h-.225Zm.45,0h.225v1.147h-.225Zm.45,0H23.2v1.147h-.225Zm.45,0h.225v1.147h-.225Zm.45,0H24.1v1.147h-.225Zm.45,0h.225v1.147H24.32Zm.472.922a.135.135,0,0,1-.022.09v-.877a.135.135,0,0,1,.022.09Zm-3.867-.7c0-.045,0-.067.022-.09v.9a.135.135,0,0,1-.022-.09Zm-.719,13.219c-.607,0-1.079.607-1.394,1.326.09-1.1.719-2.383,1.394-2.383.427,0,.832.517,1.1,1.192-.067.112-.135.225-.2.36A1.189,1.189,0,0,0,20.206,24.981ZM18.5,26.96c-.022,0-.022.022-.045.022a.192.192,0,0,1-.157,0c-.022,0-.022,0-.045-.022a.309.309,0,0,1-.2-.36.271.271,0,0,1,.112-.112.135.135,0,0,1,.09-.022.083.083,0,0,1,.067.022c.022,0,.022,0,.045.022a.224.224,0,0,1,.112.09h0A1.817,1.817,0,0,0,18.5,26.96Zm-6.183,1.709c-.292,0-.517-.225-.674-.652-.022-.045-.022-.112-.045-.157,0-.022,0-.045-.022-.045,0-.045-.022-.067-.022-.112a.083.083,0,0,0-.022-.067.135.135,0,0,0-.022-.09v-.157a3.584,3.584,0,0,1,.225-1.641c.022-.022.022-.045.045-.067l.022-.022.022-.022.045-.045c.022-.022.045-.022.09-.022h.067c.022,0,.022.022.045.022,1.057.719,4.406,2.361,5.845,3.058ZM13.6,26.106c-.225-.135-.45-.247-.652-.36a.314.314,0,0,1,.337-.067A.408.408,0,0,1,13.6,26.106Zm.2.112c0-.022,0-.022.022-.045a.62.62,0,0,0-.45-.7.557.557,0,0,0-.629.157c-.18-.112-.36-.225-.472-.292h0l2.518-2.226a.205.205,0,0,1,.247-.045c.472.292.719.427,1.8,1.012l.157.09a.742.742,0,0,0,.517.7.716.716,0,0,0,.607,0c.2.135.4.27.585.4a4.865,4.865,0,0,0-.225,1.079c-.022,0-.022-.022-.045-.022a.083.083,0,0,0-.067-.022.441.441,0,0,0-.337.022.4.4,0,0,0-.225.27.533.533,0,0,0,.337.607.083.083,0,0,0,.067.022.285.285,0,0,0,.135.022.529.529,0,0,0,.18-.045v.045a4.541,4.541,0,0,0-.067.742,2.2,2.2,0,0,0,.067.585C17.845,28.264,15.507,27.117,13.8,26.218Zm6.407,3.35c-.877,0-1.394-.585-1.394-1.574,0-1.169.674-2.675,1.394-2.675S21.6,26.825,21.6,27.994A1.356,1.356,0,0,1,20.206,29.568Zm1.6-.7a2.479,2.479,0,0,0,.135-.877,4.562,4.562,0,0,0-.607-2.181c.27-.607.652-1.079,1.057-1.079.719,0,1.394,1.506,1.394,2.675,0,.989-.517,1.574-1.394,1.574A2.449,2.449,0,0,1,21.8,28.871Zm4.631-1.6A1.5,1.5,0,0,1,24.9,28.736H23.736a1.939,1.939,0,0,0,.247-.427,9.463,9.463,0,0,0,1.079-.27,1.453,1.453,0,0,0,.967-1.371V18.124h0c0-.517-2.2-.562-3.147-.562-.9,0-2.968.045-3.147.495h0c0,.022-.022.045-.022.067v2.743a.157.157,0,1,0,.315,0V18.394a10.732,10.732,0,0,0,2.833.27,10.641,10.641,0,0,0,2.833-.27v8.273a1.144,1.144,0,0,1-.742,1.079,6.278,6.278,0,0,1-.877.225c.022-.09.022-.18.045-.27A1.97,1.97,0,0,0,25.4,26.96a.116.116,0,0,0-.2-.112,1.65,1.65,0,0,1-1.079.629V27.41c0-1.192-.7-3.013-1.754-3.013a1.255,1.255,0,0,0-.854.427c-.315-.674-.764-1.214-1.349-1.214a1.227,1.227,0,0,0-.967.585c0-.742,0-1.529.022-2.383.022-1.012.045-1.933.09-2.81,0-.18.022-.36.022-.54a6.937,6.937,0,0,1,.315-2.271,4.747,4.747,0,0,1,.764-1.124,4.222,4.222,0,0,0,.922-1.461v-.022A5.535,5.535,0,0,0,21.375,13h2.968a4.747,4.747,0,0,0,.045.585v.022a3.882,3.882,0,0,0,.9,1.439,4.335,4.335,0,0,1,.764,1.124,6.67,6.67,0,0,1,.315,2.226,5.081,5.081,0,0,0,.022.585c.045,1.057.067,1.978.067,2.81C26.5,23.925,26.479,25.656,26.434,27.275Zm-.832-9.15a11.133,11.133,0,0,1-2.743.247,10.984,10.984,0,0,1-2.743-.247,11.133,11.133,0,0,1,2.743-.247A8.979,8.979,0,0,1,25.6,18.124Z" transform="translate(828.374 471.827)"/></g></svg>