<svg xmlns="http://www.w3.org/2000/svg" width="40" height="40" viewBox="0 0 28 28"><defs><style>.a{fill:#fff;stroke:#e7404a;}.b{fill:#e7404a;}.c{stroke:none;}.d{fill:none;}</style></defs><g transform="translate(-762 -479)"><g transform="translate(762 479)"><g class="a"><circle class="c" cx="14" cy="14" r="14"/><circle class="d" cx="14" cy="14" r="13.5"/></g><path class="b" d="M23.556,10.752a.327.327,0,0,0-.326-.326H22.29a3,3,0,0,0,.251-1.2,3.107,3.107,0,0,0-2.475-3.016A4.34,4.34,0,0,0,17.5,1.315a.324.324,0,0,0-.424.179.305.305,0,0,0-.023.121v.108a1.808,1.808,0,0,1-.564,1.549,1.733,1.733,0,0,0-.972-.45,3.018,3.018,0,0,0-2.2-2.827.329.329,0,0,0-.14.642,2.366,2.366,0,0,1,1.686,2.24A1.73,1.73,0,0,0,13.7,3.884,2.46,2.46,0,0,0,11.216,6.2a3.127,3.127,0,0,0-2.482,3.01,2.992,2.992,0,0,0,.251,1.2H8.046a.327.327,0,0,0-.326.326c0,3.33,3.375,6.056,7.592,6.2V20.2H12.269a.326.326,0,0,0,0,.652H19.01a.326.326,0,0,0,0-.652H15.964V16.948C20.181,16.8,23.556,14.082,23.556,10.752ZM15.312,3.467a1.086,1.086,0,1,1-1.086,1.086A1.086,1.086,0,0,1,15.312,3.467ZM9.386,9.219A2.479,2.479,0,0,1,11.575,6.8a.327.327,0,0,0,.284-.323V6.47A1.835,1.835,0,0,1,13.57,4.553h0a1.74,1.74,0,0,0,3.48.01,1.765,1.765,0,0,0-.173-.763A2.213,2.213,0,0,0,17.7,2.153a3.534,3.534,0,0,1,1.663,4.19h0a.323.323,0,0,0,.173.427.309.309,0,0,0,.095.023,2.474,2.474,0,0,1,2.26,2.429,2.377,2.377,0,0,1-.339,1.2H9.716A2.412,2.412,0,0,1,9.386,9.219Zm-1,1.859H22.894C22.675,13.984,19.5,16.3,15.638,16.3S8.607,13.984,8.385,11.078Z" transform="translate(-0.895 3.589)"/></g></g></svg>