<svg xmlns="http://www.w3.org/2000/svg" width="40" height="40" viewBox="0 0 28 28"><defs><style>.a{fill:#fff;stroke:#e7404a;}.b{fill:#e7404a;}.c{stroke:none;}.d{fill:none;}</style></defs><g transform="translate(-661 -478)"><g class="a" transform="translate(661 478)"><circle class="c" cx="14" cy="14" r="14"/><circle class="d" cx="14" cy="14" r="13.5"/></g><g transform="translate(664.303 483.676)"><path class="b" d="M24.746,49.19a10.183,10.183,0,0,1-6.661-2.068.333.333,0,0,1,.45-.49h0c.04.033,3.97,3.494,11.656.929a.333.333,0,1,1,.213.629A17.948,17.948,0,0,1,24.746,49.19Z" transform="translate(-12.999 -35.049)"/><path class="b" d="M45.557,20.817a4.423,4.423,0,0,1-1.062-.117.337.337,0,0,1-.22-.47,4,4,0,0,1,4.646-2.115.337.337,0,0,1,.22.47,4.479,4.479,0,0,1-1.932,1.9A4,4,0,0,1,45.557,20.817Zm-.42-.689a3.162,3.162,0,0,0,3.154-1.442,3.177,3.177,0,0,0-3.154,1.442Z" transform="translate(-30.507 -16.001)"/><path class="b" d="M42.07,23.755a.333.333,0,0,1-.333-.333,3.344,3.344,0,0,0-1.515-3.1.334.334,0,0,1,.3-.6A3.988,3.988,0,0,1,42.4,23.422.333.333,0,0,1,42.07,23.755Z" transform="translate(-27.405 -17.131)"/><path class="b" d="M43.218,31.885a1.625,1.625,0,0,1-1.332-.626.333.333,0,0,1,.553-.373c.023.033.463.609,1.582.16a.333.333,0,1,1,.246.619,2.784,2.784,0,0,1-1.049.22Z" transform="translate(-28.642 -24.498)"/><path class="b" d="M16.523,15.523a6,6,0,0,1-1.365-.15.333.333,0,0,1-.226-.473,5.828,5.828,0,0,1,2.511-2.468,5.8,5.8,0,0,1,3.51-.283.333.333,0,0,1,.216.47,5.812,5.812,0,0,1-2.511,2.468,5.185,5.185,0,0,1-2.135.436Zm-.749-.716a5,5,0,0,0,2.618-.333,4.959,4.959,0,0,0,1.955-1.768,4.962,4.962,0,0,0-2.618.333,4.959,4.959,0,0,0-1.955,1.768Z" transform="translate(-10.264 -12)"/><path class="b" d="M11.88,19.429a.333.333,0,0,1-.333-.333,4.581,4.581,0,0,0-2.072-4.21.334.334,0,0,1,.3-.6A5.181,5.181,0,0,1,12.213,19.1.333.333,0,0,1,11.88,19.429Z" transform="translate(-6.197 -13.504)"/><path class="b" d="M36.689,26.5a3.936,3.936,0,0,0-1.2.167,2.082,2.082,0,0,1-.829.09,1.845,1.845,0,0,1-.456-.087A3.873,3.873,0,0,0,33,26.5a4,4,0,0,0-3.284,1.708,3.86,3.86,0,0,0-.306.506c-.027.053-.05.1-.073.157s-.06.14-.083.21a.946.946,0,0,0-.057.163,1.176,1.176,0,0,0-.05.153,1.588,1.588,0,0,0-.043.17.18.18,0,0,0,0,.033,1.02,1.02,0,0,1-.033.17,1.331,1.331,0,0,0-.027.153,1.365,1.365,0,0,0-.02.163,3.559,3.559,0,0,0-.02.423,4.543,4.543,0,0,0,.063.746.953.953,0,0,0,.037.213c.017.07.037.186.06.28a1.844,1.844,0,0,0,.047.183c.017.073.04.147.06.22a7.276,7.276,0,0,0,.29.789c.033.083.07.167.11.246l.033.07c.1.21.2.386.3.553l.037.06.08.13h0l.157.02a16.562,16.562,0,0,0,3.214.113,6.118,6.118,0,0,0,.666-.057c.333-.037.666-.083,1-.143a15.706,15.706,0,0,0,2.614-.7c.14-.053.27-.093.39-.127a2.534,2.534,0,0,0,1-.5,2.238,2.238,0,0,1,.506-.346.333.333,0,0,1,.21.1.31.31,0,0,1,.047.047l.333.306.157-.5c.02-.06.037-.123.053-.183a5.528,5.528,0,0,0,.236-1.522A4.013,4.013,0,0,0,36.689,26.5Zm3.191,5.125a.466.466,0,0,0-.093-.02H39.66c-.157,0-.39.06-.919.5a1.858,1.858,0,0,1-.749.36,4.274,4.274,0,0,0-.446.143,14.82,14.82,0,0,1-5.1.893H31.93a3.482,3.482,0,0,1-.523-.027c-.19-.027-.333-.023-.526-.043l-.37-.04h0c-.063-.107-.127-.223-.193-.353h0l-.06-.123a5.935,5.935,0,0,1-.593-2.408,3.357,3.357,0,0,1,.216-1.179c.04-.1.083-.206.133-.306h0l.02-.04A3.33,3.33,0,0,1,33,27.165a3.277,3.277,0,0,1,1,.167,2.445,2.445,0,0,0,.6.117,2.691,2.691,0,0,0,1.092-.117,3.35,3.35,0,0,1,4.33,3.194,4.626,4.626,0,0,1-.15,1.116Z" transform="translate(-20.34 -21.669)"/><path class="b" d="M22.5,44.095l-.033-.06-.08.16c.067,0,.13.023.2.03ZM33.12,42.816a.962.962,0,0,0-.193-.56,1.093,1.093,0,0,0-.143-.163,1.019,1.019,0,0,0-.436-.243h0a.466.466,0,0,0-.093-.02h-.127c-.157,0-.39.06-.919.5a1.858,1.858,0,0,1-.753.36,4.276,4.276,0,0,0-.446.143,14.82,14.82,0,0,1-5.1.893h-.516a3.549,3.549,0,0,1-.523-.027c-.19-.027-.333-.023-.526-.043a2.331,2.331,0,0,1-.37-.043h-.16l-.143-.063-.423-.067-.087-.017c.1.21.2.386.3.553l-.08.16c.067,0,.13.023.2.03l.16.023a16.562,16.562,0,0,0,3.214.113,6.119,6.119,0,0,0,.666-.057c.333-.037.666-.087,1-.143a15.707,15.707,0,0,0,2.614-.7c.14-.053.27-.093.39-.127a2.534,2.534,0,0,0,1-.5,2.238,2.238,0,0,1,.5-.336.333.333,0,0,1,.21.1.31.31,0,0,1,.047.047.36.36,0,0,1,.073.16,1.459,1.459,0,0,1-.31.333.769.769,0,0,0-.243.726,1.845,1.845,0,0,1-.333,1.389l-.107.107a9.858,9.858,0,0,1-8.592,3.117,8.515,8.515,0,0,1-4.829-1.955l.566.516-.763.063H17.7a9.339,9.339,0,0,0,5.086,2.028,11.123,11.123,0,0,0,1.435.093,10.509,10.509,0,0,0,7.7-3.4l.1-.107a2.471,2.471,0,0,0,.526-2,.11.11,0,0,1,.03-.1C32.953,43.3,33.12,43.052,33.12,42.816ZM22,43.452a.99.99,0,0,1-.173-.03l.173.033Z" transform="translate(-12.804 -31.895)"/><path class="b" d="M5.785,46.188A6.887,6.887,0,0,1,5,45.342c.067.087.137.177.21.263A5,5,0,0,1,.786,41.739H.739a1.062,1.062,0,0,1-.583-.593l-.07-.157A1.119,1.119,0,0,1,0,40.61v.043a5.642,5.642,0,0,0,5.638,5.635h.256A1.363,1.363,0,0,1,5.785,46.188ZM4,43.421a7.661,7.661,0,0,0,.333.833A8.8,8.8,0,0,1,4,43.421Z" transform="translate(0.001 -31.082)"/><path class="b" d="M10.924,31.14a5.935,5.935,0,0,1-.6-2.391,3.357,3.357,0,0,1,.216-1.179c.04-.1.083-.206.133-.306h0l.02-.04.053-.107-.077-.15a4.739,4.739,0,0,0-.29-.506,5.585,5.585,0,0,0-4.563-2.6H5.532a2.3,2.3,0,0,0-.4.023A5.612,5.612,0,0,0,0,29.329V29.3a1.076,1.076,0,0,1,.639-.9l.15-.063a4.952,4.952,0,0,1,4.489-3.817h.673a4.939,4.939,0,0,1,4.04,2.584c-.03.07-.06.14-.083.21a.946.946,0,0,0-.057.163,1.175,1.175,0,0,0-.05.153,1.589,1.589,0,0,0-.043.17.18.18,0,0,0,0,.033,1.02,1.02,0,0,1-.033.17,1.331,1.331,0,0,0-.027.153,1.366,1.366,0,0,0-.02.163,3.56,3.56,0,0,0-.02.423,4.543,4.543,0,0,0,.063.746.953.953,0,0,0,.037.213c.017.07.037.186.06.28a1.845,1.845,0,0,0,.047.183c.017.073.04.147.06.22a7.276,7.276,0,0,0,.29.789l.05.117-.07.17a1.286,1.286,0,0,0,.163.03c.1.21.2.386.3.553l.03-.057c.067-.133.13-.273.183-.413a1.788,1.788,0,0,0,.07-.187l.053-.127h0Zm-.333,1.072h0l-.266-.04Z" transform="translate(0.001 -19.91)"/><path class="b" d="M10.654,38.519l-.08.16-.253-.037a17.575,17.575,0,0,1-5.528-1.9,2.372,2.372,0,0,1-.516-.393l-.383-.383a.46.46,0,0,1-.123-.416.443.443,0,0,1,.27-.333l.163-.073a.41.41,0,0,0,.22-.536l-.07-.163a.423.423,0,0,0-.223-.22.4.4,0,0,0-.31,0L.91,35.485a.42.42,0,0,0-.243.333.306.306,0,0,0,0,.05.39.39,0,0,0,.033.143l.07.157A.4.4,0,0,0,1,36.4a.41.41,0,0,0,.313,0l1.052-.45.13.057A3.58,3.58,0,0,1,4.327,37.76h0a1.882,1.882,0,0,1,.216.5,6.168,6.168,0,0,0,1.689,2.718l.566.516-.763.063H5.9a1.363,1.363,0,0,1-.11-.093,6.887,6.887,0,0,1-.793-.823l-.153-.21q-.073-.1-.14-.21c-.09-.137-.17-.27-.24-.4l-.1-.193c0-.027-.023-.05-.037-.073a6.246,6.246,0,0,1-.333-.833L3.91,38.5a2.521,2.521,0,0,0-.123-.333l-.037-.057-.03-.06a2.971,2.971,0,0,0-1.369-1.382L1.563,37a1.056,1.056,0,0,1-.693.05l-.087-.01H.737a1.062,1.062,0,0,1-.583-.593l-.07-.157A1.119,1.119,0,0,1,0,35.908H0a.843.843,0,0,1,0-.1s0-.017,0-.027a1.076,1.076,0,0,1,.639-.9l.15-.063,2.771-1.179a1.072,1.072,0,0,1,1.409.566l.07.163A1.079,1.079,0,0,1,4.59,35.7l.167.167a1.665,1.665,0,0,0,.373.283l.14.077.123.067c.226.12.543.276.936.446l.147.063c.226.1.473.2.743.3l.306.113.213.073.366.12c.363.113.756.226,1.169.333.117.03.233.057.353.08l.393.083.173.033h0a1.286,1.286,0,0,0,.163.03A4.34,4.34,0,0,0,10.654,38.519Z" transform="translate(0.004 -26.38)"/><path class="b" d="M14.7,31.346a1.509,1.509,0,0,1-1.375-.749.333.333,0,0,1,.593-.3c.037.067.37.609,1.365.28a.333.333,0,1,1,.213.629A2.478,2.478,0,0,1,14.7,31.346Z" transform="translate(-9.106 -24.095)"/></g></g></svg>