<svg xmlns="http://www.w3.org/2000/svg" width="40" height="40" viewBox="0 0 28 28"><defs><style>.a{fill:#fff;stroke:#e7404a;}.b{fill:#e7404a;}.c{stroke:none;}.d{fill:none;}</style></defs><g transform="translate(-730 -478)"><g transform="translate(730 478)"><g class="a"><circle class="c" cx="14" cy="14" r="14"/><circle class="d" cx="14" cy="14" r="13.5"/></g><g transform="translate(5.302 5.676)"><path class="b" d="M1.119,98.133a2.544,2.544,0,0,0,2.557,2.236H14.012a2.544,2.544,0,0,0,2.557-2.236,1.384,1.384,0,0,0,1.119-1.357.276.276,0,0,0-.276-.276H.276A.276.276,0,0,0,0,96.776a1.384,1.384,0,0,0,1.119,1.357Zm15.969-1.08a.831.831,0,0,1-.782.553.276.276,0,0,0-.276.276,1.98,1.98,0,0,1-2.017,1.935H3.676a1.98,1.98,0,0,1-2.017-1.935.276.276,0,0,0-.276-.276A.831.831,0,0,1,.6,97.053Z" transform="translate(0 -83.648)"/><path class="b" d="M15.276,105.053h3.685a.276.276,0,1,0,0-.553H15.276a.276.276,0,1,0,0,.553Z" transform="translate(-12.927 -90.543)"/><path class="b" d="M52.776,105.053h7.808a.276.276,0,1,0,0-.553H52.776a.276.276,0,1,0,0,.553Z" transform="translate(-45.245 -90.543)"/><path class="b" d="M31.587,112.5H25.276a.276.276,0,1,0,0,.553h6.311a.276.276,0,1,0,0-.553Z" transform="translate(-21.545 -97.437)"/><path class="b" d="M84.195,112.5H81.776a.276.276,0,1,0,0,.553h2.418a.276.276,0,1,0,0-.553Z" transform="translate(-70.238 -97.437)"/><path class="b" d="M42.766,81.689a.552.552,0,0,1-.715.291.276.276,0,1,0-.171.526,1.1,1.1,0,0,0,1.4-.61.276.276,0,1,0-.513-.206Z" transform="translate(-35.928 -70.735)"/><path class="b" d="M71.559,73.561a.276.276,0,0,0-.523-.179.552.552,0,0,1-.7.328.276.276,0,0,0-.144.534A1.1,1.1,0,0,0,71.559,73.561Z" transform="translate(-60.318 -63.563)"/><path class="b" d="M72.859,62.3a.276.276,0,0,0-.247-.3,1.093,1.093,0,0,0-1.235.9.274.274,0,0,0,.235.314c.236.034.25-.141.327-.3a.579.579,0,0,1,.618-.363A.277.277,0,0,0,72.859,62.3Z" transform="translate(-61.511 -53.911)"/><path class="b" d="M82.195,84.243a1.1,1.1,0,0,0,1.365-.683.276.276,0,1,0-.523-.179.552.552,0,0,1-.7.328.276.276,0,0,0-.144.534Z" transform="translate(-70.66 -72.182)"/><path class="b" d="M28.775,80.324a.552.552,0,0,1-.736-.231.276.276,0,1,0-.467.3,1.1,1.1,0,0,0,1.467.421.276.276,0,0,0-.264-.486Z" transform="translate(-23.725 -69.398)"/><path class="b" d="M13.641,82.377a.276.276,0,1,0,.277.479.552.552,0,0,1,.742.212.276.276,0,0,0,.459-.308A1.093,1.093,0,0,0,13.641,82.377Z" transform="translate(-11.637 -71.344)"/><path class="b" d="M63.23,84.71a.553.553,0,0,1-.7-.328.276.276,0,0,0-.523.179,1.109,1.109,0,0,0,1.365.683.276.276,0,1,0-.145-.533Z" transform="translate(-53.428 -73.043)"/><path class="b" d="M84.856,72.3a.276.276,0,0,0-.247-.3,1.093,1.093,0,0,0-1.235.9.276.276,0,0,0,.545.091.552.552,0,0,1,.635-.438A.277.277,0,0,0,84.856,72.3Z" transform="translate(-71.849 -62.528)"/><path class="b" d="M101.637,80.53a.294.294,0,0,0-.047.538c.2.1.443-.128.576-.258a1.121,1.121,0,0,0,.451-1.025.276.276,0,0,0-.542.109A.552.552,0,0,1,101.637,80.53Z" transform="translate(-87.418 -69.052)"/><path class="b" d="M4.448,68.352a.274.274,0,0,0,.295-.257c.107-1.563,1.109-1.765,2.77-2.1.16-.032.325-.066.493-.1a.277.277,0,0,0,.187-.141,4.93,4.93,0,0,1,.627-.914L8.4,64.481a5.485,5.485,0,0,0-.63.9l-.364.074c-1.651.333-3.077.62-3.213,2.6A.276.276,0,0,0,4.448,68.352Z" transform="translate(-3.611 -56.054)"/><path class="b" d="M52.094,51.151a5.18,5.18,0,0,1,1.011-.1,5,5,0,0,1,4.511,2.75.276.276,0,0,0,.166.14c.269.083.523.152.768.219,1.31.358,2.031.555,2.122,1.884a.276.276,0,0,0,.276.258h.019a.276.276,0,0,0,.257-.295c-.117-1.721-1.234-2.026-2.528-2.38-.207-.056-.419-.115-.64-.181a5.549,5.549,0,0,0-4.95-2.948,5.69,5.69,0,0,0-1.978.355l.117.118A2.452,2.452,0,0,1,52.094,51.151Z" transform="translate(-44.062 -44.004)"/><path class="b" d="M16.911,35.483a2.148,2.148,0,0,0,.771,1.533,2.434,2.434,0,0,0,.832.492.643.643,0,0,0,.124.446c0-.077.45-.276.436-.325-.063-.214.231-.335.372-.414a.576.576,0,0,0,.3-.534.972.972,0,0,1,.147-.509c.1-.148.311-.287.215-.493a2.454,2.454,0,0,0-.586-.77,2.1,2.1,0,0,0-1.593-.583L14.194,30.61a.275.275,0,0,0-.39,0l-1,1a.273.273,0,0,0-.082.206.28.28,0,0,0,.1.2ZM14,31.2l3.637,3.622a.274.274,0,0,0,.26.072,1.5,1.5,0,0,1,1.255.43,1.962,1.962,0,0,1,.351.41,1.488,1.488,0,0,0-.321.945l-.082.07-.307.267-.026-.007a1.819,1.819,0,0,1-.717-.4,1.543,1.543,0,0,1-.58-1.213.277.277,0,0,0-.1-.242L13.4,31.794Z" transform="translate(-10.961 -26.795)"/><path class="b" d="M98.35,10.986a.276.276,0,1,0,.448.324c.015-.02,1.432-2.042-.9-4.372a2.276,2.276,0,0,1-.88-1.823,1.7,1.7,0,0,1,.815-1.1.276.276,0,1,0-.261-.487,2.234,2.234,0,0,0-1.1,1.5,2.768,2.768,0,0,0,1.035,2.3C99.495,9.315,98.4,10.919,98.35,10.986Z" transform="translate(-83.125 -3.498)"/><path class="b" d="M85.528,9.359c1.529,1.284.861,2.48.833,2.528a.276.276,0,1,0,.474.284c.01-.016.949-1.64-.952-3.236a1.835,1.835,0,0,1-.732-1.27A2.278,2.278,0,0,1,85.7,6.184a.276.276,0,1,0-.41-.371A2.81,2.81,0,0,0,84.6,7.7,2.362,2.362,0,0,0,85.528,9.359Z" transform="translate(-72.906 -5.415)"/></g></g></g></svg>