<svg xmlns="http://www.w3.org/2000/svg" width="40" height="40" viewBox="0 0 28 28"><defs><style>.a{fill:#fff;stroke:#e7404a;}.b{fill:#e7404a;}.c{stroke:none;}.d{fill:none;}</style></defs><g transform="translate(-873 -479)"><g class="a" transform="translate(873 479)"><circle class="c" cx="14" cy="14" r="14"/><circle class="d" cx="14" cy="14" r="13.5"/></g><path class="b" d="M27.9,7.171h0c.012-.332,0-.658,0-.982s-.012-.624,0-.935a.242.242,0,0,0-.069-.181A.247.247,0,0,0,27.656,5H13.869a.247.247,0,0,0-.245.245V7.16a.414.414,0,0,0,0,.049,30.373,30.373,0,0,1,0,13.255.241.241,0,0,0,0,.053h0v1.91a.247.247,0,0,0,.245.243H27.658a.247.247,0,0,0,.177-.075.241.241,0,0,0,.069-.181c-.012-.31,0-.628,0-.935s.012-.634,0-.962h0a.114.114,0,0,0,0-.037,30.263,30.263,0,0,1,0-13.257A.108.108,0,0,0,27.9,7.171ZM27.413,6.2v.709H25.449V5.491h1.963C27.4,5.73,27.409,5.968,27.413,6.2Zm-2.46,0V6.91H23.578V5.491h1.374c-.006.238,0,.475,0,.707Zm-1.871,0v.717h-1.09V5.491H23.08c0,.234,0,.467,0,.7ZM21.5,5.491V6.908H20.034V5.491Zm-1.963,0V6.908H18.452V5.491Zm-1.582,0V6.908H16.579V5.491Zm-3.838.734V5.491h1.963V6.908H14.115Zm0,15.22v-.683h1.973V22.18H14.125c-.008-.245-.01-.491-.01-.734Zm2.464-.683h1.374V22.18H16.579Zm1.873,0h1.092V22.18H18.452Zm1.582,1.418V20.762H21.5V22.18Zm1.963,0V20.762h1.092V22.18Zm1.571,0V20.762h1.374V22.18Zm3.84-.709v.709H25.445V20.762h1.963c.014.24.01.477,0,.709Zm-.057-1.2H14.176a30.88,30.88,0,0,0,0-12.872h13.18a30.629,30.629,0,0,0,0,12.872Z" transform="translate(866.37 478.728)"/><path class="b" d="M29,28.51c-3.154,0-5.717,1.874-5.717,4.179S25.843,36.868,29,36.868s5.717-1.874,5.717-4.187S32.149,28.51,29,28.51Zm0,7.823c-2.859,0-5.182-1.635-5.182-3.638S26.139,29.043,29,29.043s5.182,1.635,5.182,3.638S31.856,36.333,29,36.333Z" transform="translate(858.137 459.455)"/><path class="b" d="M39.117,35.855a2.654,2.654,0,0,0-2.3.308,1.011,1.011,0,0,0-.531.89c.032.409.389.777,1.07,1.093,1.252.586,1.136.856.991,1.181a.917.917,0,0,0,.088,1.093,2.08,2.08,0,0,0,1.592.755,2.249,2.249,0,0,0,.77-.139,2.189,2.189,0,0,0,1.5-1.966C42.288,38.337,41.892,36.961,39.117,35.855Zm1.5,4.675a1.562,1.562,0,0,1-1.774-.462c-.15-.171-.118-.27,0-.529.306-.7.2-1.2-1.256-1.881-.663-.312-.751-.561-.76-.642-.013-.173.2-.338.3-.4a2.482,2.482,0,0,1,1.284-.364,1.136,1.136,0,0,1,.5.094l.021.011c1.817.721,2.848,1.712,2.833,2.709a1.654,1.654,0,0,1-1.151,1.464Z" transform="translate(847.919 453.798)"/></g></svg>