<svg id="Switch_-_Off" data-name="Switch - Off" xmlns="http://www.w3.org/2000/svg" xmlns:xlink="http://www.w3.org/1999/xlink" width="41" height="24.922" viewBox="0 0 41 24.922">
  <defs>
    <clipPath id="clip-path">
      <path id="Mask" d="M12.748.074c1.4-.08,2.8-.074,4.195-.074h7.088c1.426,0,2.823-.006,4.221.074a17.4,17.4,0,0,1,3.741.572,12.254,12.254,0,0,1,0,23.63,17.451,17.451,0,0,1-3.741.572c-1.4.08-2.8.073-4.194.073h-7.09c-1.425,0-2.822.006-4.221-.074a17.451,17.451,0,0,1-3.741-.572,12.254,12.254,0,0,1,0-23.63A17.4,17.4,0,0,1,12.748.074Z" transform="translate(0 0)" fill="rgba(120,120,128,0.16)"/>
    </clipPath>
    <filter id="knob" x="0" y="1.461" width="25" height="26.5" filterUnits="userSpaceOnUse">
      <feOffset dy="3" input="SourceAlpha"/>
      <feGaussianBlur stdDeviation="0.5" result="blur"/>
      <feFlood flood-opacity="0.059"/>
      <feComposite operator="in" in2="blur"/>
      <feComposite in="SourceGraphic"/>
    </filter>
  </defs>
  <path id="Mask-2" data-name="Mask" d="M12.748.074c1.4-.08,2.8-.074,4.195-.074h7.088c1.426,0,2.823-.006,4.221.074a17.4,17.4,0,0,1,3.741.572,12.254,12.254,0,0,1,0,23.63,17.451,17.451,0,0,1-3.741.572c-1.4.08-2.8.073-4.194.073h-7.09c-1.425,0-2.822.006-4.221-.074a17.451,17.451,0,0,1-3.741-.572,12.254,12.254,0,0,1,0-23.63A17.4,17.4,0,0,1,12.748.074Z" transform="translate(0 0)" fill="rgba(120,120,128,0.16)"/>
  <g id="Mask_Group_5" data-name="Mask Group 5" clip-path="url(#clip-path)">
    <g id="Knob-2" data-name="Knob" transform="translate(2 1.961)">
      <g transform="matrix(1, 0, 0, 1, -2, -1.96)" filter="url(#knob)">
        <g id="knob-3" data-name="knob" transform="translate(2 1.96)" fill="#fff" stroke="rgba(0,0,0,0.04)" stroke-width="0.5">
          <circle cx="10.5" cy="10.5" r="10.5" stroke="none"/>
          <circle cx="10.5" cy="10.5" r="10.75" fill="none"/>
        </g>
      </g>
    </g>
  </g>
</svg>
