<svg xmlns="http://www.w3.org/2000/svg" width="40" height="40" viewBox="0 0 28 28"><defs><style>.a{fill:#fff;stroke:#e7404a;}.b{fill:#e7404a;}.c{stroke:none;}.d{fill:none;}</style></defs><g transform="translate(-696 -478)"><g transform="translate(696 478)"><g class="a" transform="translate(0)"><circle class="c" cx="14" cy="14" r="14"/><circle class="d" cx="14" cy="14" r="13.5"/></g><g transform="translate(5.507 5.676)"><path class="b" d="M18.884,11.081a4.008,4.008,0,0,0-1.629-3.208,1.227,1.227,0,0,0-.726-.239,1.214,1.214,0,0,0-.854.351c-.042-.035-.08-.073-.123-.106A1.2,1.2,0,0,0,15,7.654l.127-1.4c0-.033,0-.067,0-.1a1.118,1.118,0,0,0-1.116-1.116h-.075a1.118,1.118,0,0,0-1.116,1.116c0,.034,0,.067,0,.1l.128,1.4a1.235,1.235,0,0,0-.509.217c-.052.039-.1.083-.147.124-.026-.027-.053-.051-.081-.075a1.686,1.686,0,0,0-.3-1.3,1.73,1.73,0,0,0-1.505-2.737A1.723,1.723,0,0,0,9.271,2.8a1.707,1.707,0,0,0-1.448-.646,1.729,1.729,0,0,0-3.129-.291,1.739,1.739,0,0,0-1.613,1.3,2.305,2.305,0,0,0-.493,4.068,1.723,1.723,0,0,0,.483,2.019,1.67,1.67,0,0,0-.05.4,1.734,1.734,0,0,0,1.523,1.718l.638,1.787a3.189,3.189,0,0,0-.82.888L2.85,13.712a.782.782,0,0,0-.176-.02.809.809,0,0,0-.808.808v.114a.8.8,0,0,0,.038.231H1.865a.865.865,0,1,0,0,1.731H1.9a.8.8,0,0,0-.038.231v.114a.809.809,0,0,0,.808.808.789.789,0,0,0,.175-.019l1.512-.336a3.171,3.171,0,0,0,2.7,1.509h.068a3.186,3.186,0,0,0,.482-.037L17.5,17.326a1.63,1.63,0,0,0,.45-3.086,3.99,3.99,0,0,0,.935-2.552ZM15.2,8.338a3.546,3.546,0,0,1,1.375,2.806V12.2a3.561,3.561,0,0,1-.425,1.687l-2.313-.356a5.752,5.752,0,0,1-.146-1.275V11.087a5.743,5.743,0,0,1,.073-.869c.071.006.141.012.215.012.822,0,1.442-.372,1.442-.865a.785.785,0,0,0-.515-.673l.042-.467A.6.6,0,0,1,15.2,8.338ZM13.943,5.615h.075a.54.54,0,0,1,.539.539.462.462,0,0,1,0,.049l-.262,2.881.22.071c.253.081.332.187.332.21,0,.072-.307.288-.865.288s-.865-.217-.865-.288c0-.023.08-.129.332-.21l.22-.071L13.406,6.2c0-.016,0-.033,0-.049A.54.54,0,0,1,13.943,5.615Zm-.932,2.62.042.457a.785.785,0,0,0-.515.673c0,.318.259.584.662.734a6.355,6.355,0,0,0-.085.989v1.171a6.339,6.339,0,0,0,.112,1.181l-1.7-.262a3.473,3.473,0,0,1-.142-.976v-1.06A3.514,3.514,0,0,1,12.8,8.34.645.645,0,0,1,13.011,8.235ZM9.894,12.927a3.355,3.355,0,0,1-.24-1.239v-.607a3.43,3.43,0,0,1,1.395-2.744.65.65,0,0,1,.383-.125.637.637,0,0,1,.452.187,4.086,4.086,0,0,0-1.076,2.744V12.2a4.04,4.04,0,0,0,.1.88ZM9.921,4.26l.052.3.294-.065a1.152,1.152,0,0,1,1.074,1.932l-.2.2.2.2a1.147,1.147,0,0,1,.331.807c0,.009,0,.017,0,.026a1.2,1.2,0,0,0-.965.212A4.021,4.021,0,0,0,9.487,9.338q-.164-.511-.342-.976a4.091,4.091,0,0,1,1.267-2.234L10.231,5.9l-.18-.225A4.565,4.565,0,0,0,8.792,7.5a17.924,17.924,0,0,0-1.2-2.326L7.1,5.483a16.978,16.978,0,0,1,.96,1.805,4.752,4.752,0,0,0-1.9-.229l.057.574A3.161,3.161,0,0,1,8.458,8.2c.2.5.4,1.042.577,1.626a4.883,4.883,0,0,0-1.977-.457v.577a3.877,3.877,0,0,1,2.058.613,3.9,3.9,0,0,0-.039.526v.607a3.936,3.936,0,0,0,.171,1.14l-1.64-.252c-.087-.013-.174-.022-.262-.029h0a1.152,1.152,0,0,1-1.075-1.573l.084-.221-.2-.126a1.148,1.148,0,0,1-.348-1.61l.18-.27L5.7,8.6A1.729,1.729,0,0,1,6,5.395l.179-.051.027-.184a1.157,1.157,0,0,1,1.136-.986.228.228,0,0,1,.031,0l.061.007.207.017.081-.191a1.152,1.152,0,0,1,2.194.25ZM4.953,10.808h-.2A1.145,1.145,0,0,1,3.675,9.244l.085-.221L3.56,8.9a1.147,1.147,0,0,1-.348-1.61l.18-.27L3.1,6.869a1.729,1.729,0,0,1,.305-3.205l.179-.051.027-.184A1.157,1.157,0,0,1,4.75,2.442a.241.241,0,0,1,.032,0l.059.007.208.017.082-.192a1.151,1.151,0,0,1,2.194.251l.052.3.294-.065A1.058,1.058,0,0,1,8.3,2.8,1.727,1.727,0,0,0,7.289,3.6,1.739,1.739,0,0,0,5.676,4.9a2.318,2.318,0,0,0-1.5,2.161A2.3,2.3,0,0,0,5.182,8.964a1.723,1.723,0,0,0,.483,2.019,1.668,1.668,0,0,0-.05.4,1.736,1.736,0,0,0,.563,1.28,3.142,3.142,0,0,0-.494.19ZM2.442,14.615V14.5a.235.235,0,0,1,.282-.226L4.1,14.58c-.033.087-.063.176-.089.266H2.674A.232.232,0,0,1,2.442,14.615Zm-.865,1.1a.289.289,0,0,1,.288-.288H3.9c-.008.1-.014.191-.014.288s.006.193.015.288H1.865A.289.289,0,0,1,1.577,15.711Zm1.147,1.437a.238.238,0,0,1-.281-.226v-.114a.232.232,0,0,1,.231-.231H4.007c.026.091.056.179.089.266Zm15.584-1.437a1.051,1.051,0,0,1-.9,1.044L7.521,18.277a2.6,2.6,0,0,1-.4.03H7.058a2.6,2.6,0,1,1,0-5.192h.068a2.632,2.632,0,0,1,.395.03l9.891,1.522A1.051,1.051,0,0,1,18.308,15.711Zm0-4.024a3.415,3.415,0,0,1-.984,2.382l-.573-.088a4.138,4.138,0,0,0,.4-1.779v-1.06a4.138,4.138,0,0,0-1.062-2.756.637.637,0,0,1,.438-.176.646.646,0,0,1,.383.126,3.429,3.429,0,0,1,1.395,2.744Z" transform="translate(-1 -1)"/><rect class="b" width="1" height="3" transform="translate(4.949 13.324)"/><rect class="b" height="3" transform="translate(7.949 13.324)"/><rect class="b" height="3" transform="translate(10.949 13.324)"/><rect class="b" width="1" height="2" transform="translate(12.949 13.324)"/><rect class="b" width="2" height="1" transform="translate(14.949 14.324)"/></g></g></g></svg>