<svg xmlns="http://www.w3.org/2000/svg" width="59.495" height="59.495" viewBox="0 0 59.495 59.495"><defs><style>.a{fill:#e7404a;fill-rule:evenodd;}.b,.d{fill:none;}.b{stroke:#e7404a;stroke-width:2px;}.c{stroke:none;}</style></defs><g transform="translate(-1198.253 -653.297)"><path class="a" d="M85.718,20.489a8.735,8.735,0,0,1,4.167-7.35,9.015,9.015,0,0,0-7.06-3.825c-3.007-.3-5.866,1.771-7.394,1.771s-3.878-1.726-6.371-1.68a9.451,9.451,0,0,0-7.987,4.841c-3.4,5.907-.871,14.661,2.447,19.451,1.621,2.346,3.554,4.98,6.093,4.886,2.444-.1,3.369-1.583,6.325-1.583s3.786,1.583,6.373,1.533c2.631-.048,4.3-2.391,5.907-4.745A21.283,21.283,0,0,0,90.891,28.3a8.525,8.525,0,0,1-5.181-7.808l.007,0ZM80.859,6.141A8.506,8.506,0,0,0,82.866-.024,8.656,8.656,0,0,0,77.181,2.9,8.1,8.1,0,0,0,75.13,8.875a7.158,7.158,0,0,0,5.726-2.731l0,0Z" transform="translate(1152.31 661.39)"/><g class="b" transform="translate(1198.253 653.297)"><circle class="c" cx="29.747" cy="29.747" r="29.747"/><circle class="d" cx="29.747" cy="29.747" r="28.747"/></g></g></svg>