<svg xmlns="http://www.w3.org/2000/svg" width="40.892" height="40.892" viewBox="0 0 40.892 40.892"><defs><style>.a{fill:none;}.b{fill:#e7404a;}</style></defs><path class="a" d="M0,0H40.892V40.892H0Z"/><path class="a" d="M0,0H40.892V40.892H0Z"/><path class="b" d="M6.7,30.261a3.418,3.418,0,0,0,3.408,3.408H23.742a3.418,3.418,0,0,0,3.408-3.408V9.815H6.7ZM10.9,18.13l2.4-2.4,3.629,3.612,3.612-3.612,2.4,2.4-3.612,3.612,3.612,3.612-2.4,2.4-3.612-3.612-3.612,3.612-2.4-2.4,3.612-3.612ZM22.89,4.7,21.187,3H12.667l-1.7,1.7H5V8.112H28.854V4.7Z" transform="translate(3.519 2.112)"/></svg>