<svg xmlns="http://www.w3.org/2000/svg" width="59.495" height="59.495" viewBox="0 0 59.495 59.495"><defs><style>.a{fill:#e7404a;fill-rule:evenodd;}.b,.d{fill:none;}.b{stroke:#e7404a;stroke-width:2px;}.c{stroke:none;}</style></defs><g transform="translate(-1057 -653.297)"><path class="a" d="M24.231,15.3V21.43H34.365c-.412,2.631-3.065,7.705-10.134,7.705a11.281,11.281,0,0,1,0-22.557,10.06,10.06,0,0,1,7.12,2.756L36.2,4.664A17.1,17.1,0,0,0,24.234-.012a17.868,17.868,0,1,0,0,35.736c10.31,0,17.156-7.252,17.156-17.457a16.332,16.332,0,0,0-.28-2.959L24.234,15.3h0Z" transform="translate(1062.869 665.188)"/><g class="b" transform="translate(1057 653.297)"><circle class="c" cx="29.747" cy="29.747" r="29.747"/><circle class="d" cx="29.747" cy="29.747" r="28.747"/></g></g></svg>