<svg xmlns="http://www.w3.org/2000/svg" width="44.096" height="44.096" viewBox="0 0 44.096 44.096"><defs><style>.a{fill:none;}.b{fill:#e7404a;}</style></defs><path class="a" d="M0,0H44.1V44.1H0Z"/><path class="b" d="M27.733,22.211a3.657,3.657,0,0,0,3.215-1.892L37.526,8.394a1.83,1.83,0,0,0-1.6-2.719H8.735L7.008,2H1V5.675H4.675L11.289,19.62,8.809,24.1a3.681,3.681,0,0,0,3.215,5.457H34.072V25.885H12.024l2.021-3.675ZM10.481,9.349H32.8l-5.071,9.187h-12.9ZM12.024,31.4A3.675,3.675,0,1,0,15.7,35.072,3.67,3.67,0,0,0,12.024,31.4Zm18.373,0a3.675,3.675,0,1,0,3.675,3.675A3.67,3.67,0,0,0,30.4,31.4Z" transform="translate(0.837 1.675)"/></svg>