<svg xmlns="http://www.w3.org/2000/svg" width="24.201" height="24.201" viewBox="0 0 24.201 24.201"><defs><style>.a{fill:none;}</style></defs><path class="a" d="M0,0H24.2V24.2H0ZM0,0H24.2V24.2H0ZM0,0H24.2V24.2H0ZM0,0H24.2V24.2H0Z" transform="translate(0 0)"/><path d="M12.092,6.03a9.852,9.852,0,0,1,8.894,5.546,9.728,9.728,0,0,1-2.43,3.146l1.422,1.422a11.9,11.9,0,0,0,3.207-4.568A11.933,11.933,0,0,0,8.422,4.588l1.664,1.664A10.193,10.193,0,0,1,12.092,6.03Zm-1.079,1.15L13.1,9.267a2.519,2.519,0,0,1,1.291,1.291l2.087,2.087a4.719,4.719,0,0,0,.141-1.079,4.521,4.521,0,0,0-4.528-4.528A4.28,4.28,0,0,0,11.013,7.179Zm-8.995-3.3,2.7,2.7A11.836,11.836,0,0,0,1,11.576a11.926,11.926,0,0,0,11.092,7.563,11.828,11.828,0,0,0,4.356-.827L19.9,21.761l1.422-1.422L3.44,2.45Zm7.563,7.563,2.632,2.632a.506.506,0,0,1-.121.02,2.522,2.522,0,0,1-2.521-2.521C9.571,11.525,9.581,11.5,9.581,11.445ZM6.153,8.016,7.918,9.781a4.639,4.639,0,0,0-.363,1.795,4.543,4.543,0,0,0,6.323,4.175l.988.988a10.52,10.52,0,0,1-2.773.383A9.852,9.852,0,0,1,3.2,11.576a9.985,9.985,0,0,1,2.955-3.56Z" transform="translate(0.008 0.021)"/></svg>